<?xml version="1.0" standalone="no"?>
<!DOCTYPE svg PUBLIC "-//W3C//DTD SVG 20010904//EN"
 "http://www.w3.org/TR/2001/REC-SVG-20010904/DTD/svg10.dtd">
<svg version="1.0" xmlns="http://www.w3.org/2000/svg"
 width="260.000000pt" height="280.000000pt" viewBox="0 0 260.000000 280.000000"
 preserveAspectRatio="xMidYMid meet">

<g transform="translate(0.000000,280.000000) scale(0.100000,-0.100000)"
fill="#F1B631" stroke="none">
<path d="M1155 1997 c-190 -64 -336 -233 -365 -424 -38 -249 124 -496 373
-568 67 -19 204 -22 269 -5 241 65 415 324 379 567 -11 77 -61 197 -99 243
l-21 25 -1 -212 0 -213 -30 -62 c-72 -154 -201 -238 -362 -238 -345 0 -518
421 -274 666 72 72 150 106 252 112 49 3 96 0 118 -8 l36 -12 0 -202 c0 -195
-1 -204 -23 -237 -42 -62 -117 -78 -177 -36 -35 23 -44 35 -60 80 -9 25 -14
27 -64 27 -30 0 -57 -4 -60 -9 -3 -5 1 -31 9 -58 35 -117 124 -183 247 -183
83 0 127 19 185 82 63 69 67 90 67 372 l1 250 -60 24 c-50 21 -80 26 -180 29
-81 2 -133 -1 -160 -10z"/>
</g>
</svg>
