<?xml version="1.0" standalone="no"?>
<!DOCTYPE svg PUBLIC "-//W3C//DTD SVG 20010904//EN"
 "http://www.w3.org/TR/2001/REC-SVG-20010904/DTD/svg10.dtd">
<svg version="1.0" xmlns="http://www.w3.org/2000/svg"
 width="1600.000000pt" height="1200.000000pt" viewBox="0 0 1600.000000 1200.000000"
 preserveAspectRatio="xMidYMid meet">

<g transform="translate(0.000000,1200.000000) scale(0.100000,-0.100000)"
fill="#000000" stroke="none">
<path d="M10938 10979 c-463 -24 -905 -153 -1262 -368 -563 -341 -980 -974
-1142 -1736 -70 -330 -67 -277 -71 -1291 l-4 -921 41 -17 c23 -9 39 -20 35
-25 -3 -5 4 -7 15 -4 11 3 20 0 20 -6 0 -6 15 -11 33 -11 21 0 28 -3 19 -9
-10 -6 -9 -10 7 -14 21 -5 21 -2 21 141 1 81 2 179 4 217 2 39 4 97 5 130 1
46 4 56 13 47 7 -7 23 -12 37 -12 18 0 22 -3 13 -9 -11 -6 -10 -9 5 -13 10 -3
22 -5 27 -6 5 0 12 -4 15 -9 13 -19 69 -52 76 -45 5 4 5 1 1 -5 -5 -9 0 -13
16 -13 18 0 20 -2 8 -10 -12 -8 -11 -10 6 -10 12 0 40 -13 62 -30 23 -16 47
-30 54 -30 6 0 24 -11 39 -26 14 -14 35 -26 47 -27 11 0 18 -5 16 -9 -3 -4 2
-8 10 -8 9 0 16 -4 16 -9 0 -5 9 -13 20 -16 19 -6 20 -15 20 -261 0 -153 4
-253 9 -249 5 3 16 -1 24 -10 8 -8 24 -12 36 -10 12 2 19 0 16 -6 -4 -5 6 -9
22 -10 25 0 26 -1 8 -9 -14 -6 -15 -9 -4 -9 27 -2 36 18 29 60 -6 30 -4 39 7
39 8 0 11 5 8 11 -7 10 -7 145 0 224 2 22 6 456 9 965 4 509 11 954 16 990 5
36 14 128 20 205 22 267 91 642 145 780 17 45 16 37 -25 -133 -39 -160 -66
-308 -93 -512 l-22 -165 -1 -2579 c-2 -1881 -5 -2606 -14 -2680 -12 -106 -50
-300 -75 -382 -8 -26 -13 -50 -11 -52 3 -3 36 86 42 113 1 6 10 37 18 70 23
85 43 188 51 270 7 72 8 83 19 170 3 28 8 214 11 414 3 200 7 366 10 370 2 4
5 29 6 57 2 62 8 86 20 79 5 -4 9 -2 9 4 0 5 9 8 20 6 11 -2 22 0 25 6 4 5 11
9 17 9 6 0 8 -3 5 -7 -4 -3 3 -11 14 -17 12 -6 21 -15 20 -20 -3 -10 18 -26
34 -26 6 0 3 5 -5 10 -10 7 -11 10 -2 10 7 0 15 -7 18 -15 4 -8 15 -15 26 -15
10 0 16 -5 13 -10 -3 -5 0 -10 8 -10 24 0 100 -47 88 -54 -6 -4 -11 -13 -11
-19 0 -8 3 -8 9 1 4 8 19 12 32 11 13 -2 29 0 35 3 6 4 11 1 11 -7 0 -8 -5
-11 -10 -8 -6 3 -7 1 -3 -5 4 -7 12 -12 18 -12 5 0 22 -9 38 -20 15 -11 31
-16 36 -12 4 4 2 -1 -5 -11 -20 -25 -2 -41 30 -27 22 10 23 10 2 6 -13 -2 -26
0 -29 5 -3 5 6 9 21 9 14 0 28 -6 31 -14 3 -7 23 -21 44 -31 22 -10 37 -22 34
-26 -3 -5 7 -9 22 -9 26 0 26 -1 9 -13 -14 -11 -15 -16 -5 -22 9 -5 11 -4 6 3
-12 20 22 13 63 -12 21 -14 42 -22 47 -18 4 4 4 1 0 -5 -5 -9 1 -13 19 -13 15
0 24 -4 20 -10 -3 -5 0 -10 8 -10 8 0 26 -9 41 -21 l26 -20 0 23 c0 13 -6 30
-12 37 -10 11 -10 13 0 7 9 -6 12 51 12 271 6 4417 5 4383 23 4543 81 727 230
1241 464 1594 88 134 242 288 338 338 l70 37 -40 -1 c-22 0 -106 -4 -187 -9z
m-1382 -1295 c-8 -21 -15 -34 -15 -28 -1 15 20 76 25 71 2 -2 -2 -21 -10 -43z
m-22 -78 c-3 -15 -8 -25 -11 -23 -2 3 -1 17 3 31 3 15 8 25 11 23 2 -3 1 -17
-3 -31z m-770 -2444 c3 -5 -1 -9 -9 -9 -8 0 -12 4 -9 9 3 4 7 8 9 8 2 0 6 -4
9 -8z m243 -177 c0 -8 -4 -12 -9 -9 -5 3 -6 10 -3 15 9 13 12 11 12 -6z m-10
-51 c-3 -3 -12 -4 -19 -1 -8 3 -5 6 6 6 11 1 17 -2 13 -5z m479 -2317 c26 -1
7 -22 -22 -24 -27 -1 -31 1 -27 18 4 14 11 18 22 13 9 -3 21 -7 27 -7z m648
-348 c-3 -5 -10 -7 -15 -3 -5 3 -7 10 -3 15 3 5 10 7 15 3 5 -3 7 -10 3 -15z"/>
<path d="M8528 6583 c6 -2 18 -2 25 0 6 3 1 5 -13 5 -14 0 -19 -2 -12 -5z"/>
<path d="M9240 6241 c0 -10 19 -25 25 -20 1 2 -3 10 -11 17 -8 7 -14 8 -14 3z"/>
<path d="M5698 4753 c7 -3 16 -2 19 1 4 3 -2 6 -13 5 -11 0 -14 -3 -6 -6z"/>
<path d="M5697 4709 c-10 -6 -27 -9 -38 -6 -12 3 -19 0 -19 -9 0 -8 -5 -14
-12 -14 -6 0 -36 -12 -67 -26 -31 -14 -72 -33 -91 -41 -19 -8 -43 -19 -53 -24
-12 -7 -16 -6 -15 3 2 7 17 15 33 18 l30 6 -37 5 c-29 4 -35 2 -33 -11 5 -26
-11 -44 -31 -36 -10 4 -15 4 -11 0 10 -11 -64 -43 -82 -36 -9 3 -12 1 -7 -6 5
-8 -2 -12 -19 -12 -15 0 -24 -4 -20 -10 3 -5 1 -10 -5 -10 -5 0 -37 -13 -70
-29 -36 -16 -63 -24 -67 -19 -3 6 -1 13 4 17 8 5 9 23 3 36 -1 3 -3 9 -4 14 0
5 -5 13 -10 18 -5 5 -6 3 -2 -4 5 -9 -1 -13 -21 -14 l-28 -1 27 -7 c31 -7 27
-19 -17 -42 -16 -9 -29 -21 -27 -28 1 -7 -2 -10 -6 -7 -11 6 -10 82 1 92 11
11 8 36 -3 29 -6 -4 -7 -12 -4 -18 5 -9 4 -9 -6 0 -14 13 -43 6 -34 -8 3 -5 0
-9 -6 -9 -7 0 -10 -7 -6 -15 3 -8 2 -15 -3 -15 -10 0 -54 -178 -75 -305 -44
-256 -46 -569 -6 -784 88 -478 366 -901 769 -1172 307 -207 639 -308 1010
-309 453 0 874 162 1216 468 177 159 303 325 414 548 87 175 160 426 175 604
l6 65 -14 -60 c-63 -268 -229 -487 -468 -614 -158 -85 -328 -116 -547 -100
-736 51 -1366 541 -1600 1244 -53 158 -81 316 -88 498 -3 81 -9 147 -12 147
-3 0 -14 -5 -24 -11z"/>
<path d="M5556 4689 c2 -4 -10 -9 -28 -11 l-33 -3 37 -6 c21 -3 36 -1 35 5 -1
5 12 13 28 17 29 7 29 7 -7 6 -20 -1 -35 -4 -32 -8z"/>
<path d="M4995 4600 c-16 -7 -17 -9 -3 -9 9 -1 20 4 23 9 7 11 7 11 -20 0z"/>
<path d="M5338 4593 c6 -2 18 -2 25 0 6 3 1 5 -13 5 -14 0 -19 -2 -12 -5z"/>
<path d="M5195 4530 c4 -6 11 -8 16 -5 14 9 11 15 -7 15 -8 0 -12 -5 -9 -10z"/>
<path d="M5145 4510 c3 -5 -2 -10 -12 -11 -10 0 -13 -3 -7 -5 6 -3 24 2 40 11
l29 15 -28 0 c-16 0 -26 -4 -22 -10z"/>
<path d="M9840 4339 c0 -5 5 -7 10 -4 6 3 10 8 10 11 0 2 -4 4 -10 4 -5 0 -10
-5 -10 -11z"/>
<path d="M9950 4297 c0 -19 16 -31 24 -18 3 5 -1 14 -9 21 -12 10 -15 10 -15
-3z"/>
<path d="M10070 4205 c0 -7 30 -13 34 -7 3 4 -4 9 -15 9 -10 1 -19 0 -19 -2z"/>
</g>
</svg>
